<svg width="2560" height="1600" xmlns="http://www.w3.org/2000/svg" stroke="null" style="vector-effect: non-scaling-stroke;">
 <!-- Created with Method Draw - http://github.com/duopixel/Method-Draw/ -->
 <defs stroke="null" style="vector-effect: non-scaling-stroke;">
  <linearGradient stroke="null" style="vector-effect: non-scaling-stroke;" y2="0" x2="1" y1="0" x1="0" id="svg_24">
   <stop stroke="null" style="vector-effect: non-scaling-stroke;" offset="0" stop-opacity="0.996094" stop-color="#ff56aa"/>
   <stop stroke="null" style="vector-effect: non-scaling-stroke;" offset="1" stop-opacity="0.996094" stop-color="#ffaaaa"/>
  </linearGradient>
 </defs>
 <g stroke="null">
  <title stroke="null">background</title>
  <rect stroke="null" fill="#fff" id="canvas_background" height="1602" width="2562" y="-1" x="-1"/>
  <g stroke="null" style="vector-effect: non-scaling-stroke;" display="none" overflow="visible" y="0" x="0" height="100%" width="100%" id="canvasGrid">
   <rect stroke="null" fill="url(#gridpattern)" stroke-width="0" y="0" x="0" height="100%" width="100%"/>
  </g>
 </g>
 <g stroke="null">
  <title stroke="null">Layer 1</title>
  <rect stroke="#fff" transform="rotate(-90 1267.0000000000002,1163.9993896484375) " id="svg_22" height="2817.994975" width="2595.995341" y="-244.998098" x="-30.997696" stroke-width="1.5" fill="url(#svg_24)"/>
  <path stroke="#fff" d="m341.001648,479.00061c0,-4 -3.763763,-10.145538 -9.999969,-19.999969c-7.71225,-12.18689 -12.692505,-26.895599 -23.999969,-41.999908c-14.432922,-19.279236 -33.367065,-38.458221 -47.999908,-57.999908c-15.35173,-20.50174 -34.238831,-35.798615 -45.999908,-49.999908c-8.168243,-9.863007 -14.986893,-15.75708 -15.999969,-21.999939c-0.640732,-3.948364 0,-8 0,-12c0,-1.999969 2,-3.999969 5.999985,-3.999969c2,0 7.999985,0 13.999985,0c9.999969,0 18.503967,3.291229 29.999939,11.999969c14.697815,11.134308 28.895172,21.028259 41.999908,33.999939c15.109802,14.95639 29.082916,31.139984 39.999939,45.999908c11.170929,15.205536 18,25.999939 23.999969,37.999939c1.999969,4 2.585785,6.585785 3.999969,7.999969c1.414215,1.414215 4,0 4,-3.999969c0,-8 -1.248016,-18.11203 -4,-33.999939c-3.147034,-18.168518 -5.999969,-33.999939 -5.999969,-49.999908c0,-13.999969 1.447968,-24.445435 7.999969,-31.999939c1.85318,-2.136749 6,-4 8,-4c2,0 4.831787,-0.477844 7.999969,6c5.557373,11.362885 9.987976,29.670959 12,47.999908c2.400574,21.868561 2.33493,46.10498 0,71.999847c-2.008118,22.270294 -15.280212,44.419067 -25.999969,61.999908c-7.508148,12.31366 -16.143555,19.382446 -25.999939,21.999939c-6.112671,1.623322 -10,2 -12,2l2,-2" id="svg_26" fill-opacity="null" stroke-opacity="null" stroke-width="1.5" fill="none"/>
  <path stroke="#fff" d="m767.000854,825c2,-2 2,-10 2,-25.999939c0,-16 0.999451,-41.950012 2,-71.999878c1.06488,-31.982239 0,-61.999878 0,-91.999878c0,-29.999939 -3.84436,-54.309753 0,-77.999817c3.039246,-18.728638 15.539917,-32.668213 24,-37.999939c8.627563,-5.437256 18.761169,-5.826843 27.999939,-2c5.226257,2.164795 11.316895,12.301086 15.999939,21.999939c7.011108,14.520508 14.998047,31.906555 16,47.999939c0.869934,13.9729 0,21.999939 0,27.999939c0,2 -3.082397,3.386902 -2,6c1.530762,3.695496 18.126465,-2.561951 43.999878,0c40.593567,4.019592 77.708679,16.683411 123.999817,35.999939c29.818909,12.442932 49.760925,23.915588 53.999939,35.999939c1.323975,3.774536 0.614868,12.371948 -2,15.999939c-3.307617,4.58905 -17.077881,16.96228 -57.999939,22c-61.535339,7.575378 -155.999695,3.999939 -273.999512,3.999939c-125.999756,0 -237.999542,4 -303.99942,4c-27.999969,0 -35.999939,4 -35.999939,6l-2,2l5.999969,0l21.999969,0" id="svg_27" fill-opacity="null" stroke-opacity="null" stroke-width="1.5" fill="none"/>
  <path stroke="#fff" d="m1526.999512,615.000366c0,-4 -6,-17.999939 -18,-35.999939c-16,-23.999939 -34.97522,-57.401123 -57.999878,-95.999817c-18.80896,-31.531281 -40.119995,-62.976044 -47.999878,-81.999847c-5.571899,-13.451843 -6,-23.999969 -6,-31.999939c0,-10 0.469238,-16.304443 2,-19.999969c3.247192,-7.839386 15.85144,-10.995087 25.999878,-11.999969c19.90271,-1.970764 36.946045,-2.484741 65.999878,9.999969c31.238037,13.423309 54.95459,30.95462 65.999878,41.999939c11.045288,11.04538 18,21.999939 22,31.999939c4,9.999969 8,17.999969 8,19.999969c0,1.999969 2.304443,3.530701 6,1.999969c5.226196,-2.164764 13.046265,-9.364868 20,-21.999939c9.497314,-17.256836 17.102173,-38.426361 25.999878,-55.999908c7.283691,-14.385681 12.76123,-28.886993 24,-31.999939c5.782349,-1.601593 10.298706,-1.051453 12,0c7.608398,4.702271 9.358276,22.011414 9.999878,39.999939c1.00061,28.053436 4.388184,52.717651 -2,77.999847c-9.651001,38.194885 -36.135742,93.118103 -81.999756,145.999756c-50.036133,57.692078 -103.487427,93.316528 -173.999756,119.999756c-55.615234,21.045898 -95.999756,31.999939 -137.999756,35.999939l-19.999878,8l-8,4l-4,1.999939" id="svg_28" fill-opacity="null" stroke-opacity="null" stroke-width="1.5" fill="none"/>
  <path stroke="#fff" d="m2164.998291,1340.999023c-4,-2 -10.219971,-6.810791 -18,-24c-8.610107,-19.022705 -22.909668,-39.824707 -35.999756,-75.999756c-13.213379,-36.515869 -16.438232,-81.944824 -22,-127.999756c-6.513916,-53.94043 -6,-97.999878 -6,-143.999817c0,-37.999878 0,-61.999878 0,-79.999817c0,-8 0.025879,-12.320374 2,-12c6.24292,1.013062 11.751709,12.189331 24,27.999939c15.685547,20.247375 28.678467,39.697327 39.999756,65.999878c8.516357,19.785706 15.837402,42.024109 18,55.999939c1.860352,12.022461 2,20 2,23.999878c0,2 4,2 8,-1.999878c14,-13.999878 25.134277,-30.335571 44,-36c11.651611,-3.498413 22.16333,-3.608459 29.999756,-2c14.92041,3.062561 21.739746,15.140381 28,30c5.652832,13.417969 6.90625,30.30481 4,43.999878c-4.089111,19.268555 -13.027588,36.602173 -22,49.999878c-12.688721,18.947144 -30.480225,36.228027 -55.999756,51.999878c-34.238037,21.160156 -73.104248,35.980713 -99.999756,52c-20.974609,12.492676 -34,23.999878 -44,29.999878l-4,2l0,2" id="svg_29" fill-opacity="null" stroke-opacity="null" stroke-width="1.5" fill="none"/>
  <path stroke="#fff" d="m2348.998047,645.000305c0,-2 2.190918,-5.954712 4,-13.999939c2.237305,-9.949585 4.920166,-24.194641 2,-45.999939c-3.026855,-22.601685 -17.952148,-45.558594 -22,-67.999878c-3.921387,-21.739868 -4,-49.999908 -4,-67.999878c0,-19.999969 -0.45166,-34.126617 2,-41.999908c5.080566,-16.315277 9.098389,-23.910309 16,-25.999969c3.828369,-1.159149 8.647217,-0.959686 12,2c5.406006,4.772339 10.865723,15.604797 16,27.999939c7.260742,17.529327 13.612061,34.060822 15.999756,47.999908c1.72168,10.051636 2,15.999969 2,23.999969c0,4 -2.152344,7.23465 -4,8c-2.613037,1.082367 -3.990234,1.802887 -2,1.999969c10.148438,1.004883 20.488037,2.226898 38,8c18.707275,6.167175 33.115967,14.155243 44,21.999969c9.178223,6.615234 10,11.999939 10,15.999939c0,2 -0.837646,4.837708 -4,8c-6.324463,6.324585 -15.931885,6.998962 -38,8c-37.960938,1.721924 -81.999756,0 -127.999756,0l-34,0l-16,0l-6,2" id="svg_30" fill-opacity="null" stroke-opacity="null" stroke-width="1.5" fill="none"/>
  <path stroke="#fff" d="m2332.998047,173.001175c-2,-2 -4,-3.999985 -4,-5.999985c0,-4 -0.380615,-5.763031 -4,-11.999985c-4.489258,-7.735977 -12.865723,-17.302109 -24,-31.999939c-13.063232,-17.243935 -25.125732,-33.26062 -34,-47.999908c-9.227051,-15.32518 -14,-27.999905 -20,-41.999924c-5.999756,-13.999929 -9.999756,-27.999948 -9.999756,-39.999926c0,-7.999985 -1.422607,-16.694303 4,-25.999952c6.44751,-11.064571 88.148438,-12.234116 103.999756,-1.999996c18.174561,11.73406 35.415771,26.761183 43.999756,37.99993c9.787354,12.814295 12,23.999956 16,35.999933c2,5.999989 2,11.999981 2,15.999973c0,3.999992 2.030029,4.488724 6,3.999992c8.184326,-1.007545 22,-3.999992 40,-3.999992c16,0 35.092285,-2.609894 52,5.999989c15.331055,7.807041 23.538818,14.781956 27.999756,21.999958c3.324951,5.379982 2.733154,10.044937 2,15.999969c-1.007568,8.18441 -6.932617,19.195724 -18,27.999954c-14.765381,11.746185 -36.223145,14.922348 -57.999756,19.999954c-28.359619,6.61261 -52.386475,10.134903 -76,15.999969c-24.552002,6.098145 -33.416748,13.3452 -45.999756,17.999969c-7.733887,2.860992 -10,2 -10,4l-2,0" id="svg_31" fill-opacity="null" stroke-opacity="null" stroke-width="1.5" fill="none"/>
  <path stroke="#fff" d="m765.000854,163.00119c-1.999939,0 -5.8479,-4.079681 -7.999939,-7.999985c-5.611816,-10.22287 -13.130615,-21.318787 -20,-33.999931c-7.254883,-13.392776 -13.125671,-25.260635 -21.999939,-39.999924c-9.227051,-15.325188 -14.278015,-30.531956 -19.999939,-45.99992c-3.103149,-8.388689 -4.919006,-14.106977 -4,-17.999966c1.027466,-4.352495 7.999939,-5.99999 13.999939,-5.99999c10,0 23.974182,0.247826 41.999939,1.999996c23.970154,2.329988 37.999939,5.99997 47.999939,15.99997c7.999939,7.999969 12.992371,11.815548 13.999939,19.999962c0.733093,5.955036 0,11.999981 0,15.999969c0,2 -1.701294,4.948532 0,5.999992c3.804199,2.351143 11.875916,-4.996574 23.999939,-5.999992c19.931824,-1.64962 36.206543,-2.56292 51.999939,0c18.728638,3.039238 30.288513,11.868271 31.999939,15.999977c2.420288,5.843109 3.37854,8.160492 2,13.999969c-1.027466,4.352493 -7.485657,10.68911 -18,17.999969c-9.574768,6.657547 -23.645325,13.286446 -35.999939,15.999977c-17.689087,3.885162 -35.906494,6.998047 -51.999878,7.999985c-13.972961,0.869919 -23.999939,1.999985 -29.999939,1.999985l-2,2l-2,0l-2,0" id="svg_32" fill-opacity="null" stroke-opacity="null" stroke-width="1.5" fill="none"/>
  <path stroke="#fff" d="m215.001892,1130.99939c-2,2 -4.051651,2.640747 -7.999985,2c-6.242889,-1.013062 -15.115906,-7.168213 -27.999954,-16c-16.983963,-11.642212 -36.904648,-24.908447 -53.999901,-39.999878c-19.083656,-16.846802 -35.999931,-35.999878 -53.999901,-53.999878c-17.999966,-18 -33.7658,-32.148682 -43.999918,-47.999939c-3.911354,-6.058167 -5.999989,-17.999939 -5.999989,-21.999939c0,-6 1.012482,-15.330811 5.999989,-18c8.991339,-4.812012 23.999956,-1.999939 39.999926,-1.999939c19.999962,0 37.770119,0.538513 55.999901,7.999939c15.814575,6.4729 37.274216,9.595642 53.999893,20c13.263626,8.250732 21.437943,16.620361 27.999954,21.999939c5.57663,4.571777 7.999985,8 7.999985,10c0,2 1.17157,6.82843 4,4c2.82843,-2.82843 0.733093,-10.044983 0,-16c-1.007553,-8.184448 -4,-15.999939 -4,-23.999939c0,-6 -0.812012,-11.026001 4,-14c5.379974,-3.325012 15.999969,-4 23.999954,-4c3.999985,0 8.42009,1.701538 13.999969,10c6.507187,9.677612 16.197983,21.250549 19.999954,35.999939c5.01712,19.46344 4,35.999939 4,51.999939c0,19.999878 -2.630737,40.405884 -7.999969,55.999878c-6.41272,18.624634 -17.999985,31.999878 -23.999969,43.999878c-4,8 -10.692352,19.410889 -13.999969,24c-2.614899,3.62793 -4,4 -6,4l-1.999985,0" id="svg_33" fill-opacity="null" stroke-opacity="null" stroke-width="1.5" fill="none"/>
  <path stroke="#fff" style="vector-effect: non-scaling-stroke;" d="m453.001465,1462.998779c-2,0 -2.770142,-2.744019 -8,-10c-4.961426,-6.883545 -11.6492,-16.122559 -15.999969,-27.999878c-3.704529,-10.113159 -7.093811,-15.689331 -9.999969,-28c-3.249176,-13.763672 -3.719086,-30.033325 -6,-47.999878c-1.781097,-14.029541 -4,-22 -4,-26c0,-4 0,-6 2,-6c4,0 6,0 10,4c7.999969,8 18.301666,13.754883 27.999939,26c8.329834,10.517334 14.752808,18.160645 17.999969,26c1.530731,3.695557 0.585785,4.585815 2,6c1.414215,1.414185 3.999969,-2 5.999969,-4c6,-6 11.736572,-14.577148 19.999969,-18c11.686218,-4.840576 21.999969,-6 39.999908,-6c10,0 19.008484,-1.928955 28,4c9.445129,6.228149 14.621399,16.160522 15.999939,22c2.054993,8.704834 4,17.999878 4,25.999878c0,8 -3.589722,18.23291 -6,22c-6.901978,10.787109 -19.352295,21.861938 -39.999939,27.999878c-29.325745,8.717651 -56.029663,6.804443 -79.999847,8c-20.074738,1.001221 -29.999939,4 -39.999908,4l-4,2l-2,0" id="svg_34" fill-opacity="null" stroke-opacity="null" stroke-width="1.5" fill="none"/>
  <path stroke="#fff" d="m1668.999268,1278.999146c-2,-2 -5.875732,-4.094727 -12,-12c-7.842773,-10.123779 -16.654297,-21.483521 -26,-33.999878c-8.628662,-11.556152 -17.134521,-27.619263 -21.999878,-44c-5.25,-17.675781 -6,-33.999878 -6,-49.999878c0,-16 0,-27.999878 0,-39.999878c0,-10 5.187988,-21.026001 10,-24c5.379883,-3.324951 14.217529,-3.601563 19.999878,-2c11.23877,3.112915 20.865601,17.302124 32,32c13.06311,17.243896 22.287598,29.812988 29.999878,41.999878c6.236206,9.854492 4.195801,17.648804 8,20c1.701294,1.051514 4.42334,0.571777 10,-4c2.187378,-1.793213 2.840088,-7.567627 8,-14c5.59668,-6.976929 14.160645,-14.752808 22,-18c5.543213,-2.296021 14.304321,-3.530762 17.999878,-2c2.613159,1.082397 6.577393,6.694336 12,16c6.447754,11.064697 14.960815,23.271362 18,41.999878c1.601807,9.87085 1.498413,24.348389 -2,36c-5.664429,18.865723 -14.339233,35.61499 -28,47.999878c-18.086548,16.397339 -50.134033,24.16394 -89.999756,28c-42.231323,4.063599 -79.487915,12.980591 -105.999878,16c-19.87146,2.263062 -25.999878,0 -27.999878,0l6,0" id="svg_35" fill-opacity="null" stroke-opacity="null" stroke-width="1.5" fill="none"/>
  <path stroke="#fff" d="m2476.997803,1560.998657c-2,0 -4.302002,-2.869263 -8,-8c-5.847168,-8.112427 -19.94458,-22.049438 -36,-39.999878c-17.938232,-20.05542 -37.074463,-36.45166 -46,-58c-6.311279,-15.236938 -4,-33.999878 -4,-47.999878c0,-8 4.380615,-17.763062 8,-23.999878c2.244629,-3.868042 6.585693,-4.585815 8,-6c1.414307,-1.414185 4.227295,-0.215088 8,4c8.540771,9.542236 16.94458,20.944458 26,29.999878c9.05542,9.05542 15.428223,16.42334 20,22c3.586426,4.374634 6.512939,4.406006 8,2c3.324951,-5.380005 6,-18 12,-30c8,-16 14.23999,-35.097168 26,-51.999878c10.530762,-15.136108 19.294678,-23.945068 27.999756,-26c3.893066,-0.919067 6.837646,-1.162231 10,2c9.486816,9.486816 12,32 18,54c6,21.999878 6,43.999878 6,65.999878c0,17.999878 -1.669434,36.171021 -8,47.999878c-7.608398,14.216553 -13.063232,27.033936 -24,35.999878c-11.15332,9.143555 -25.999756,12 -39.999756,16l-12,0l-6,0l-2,0" id="svg_36" fill-opacity="null" stroke-opacity="null" stroke-width="1.5" fill="none"/>
  <path stroke="#fff" d="m1914.998779,237.001068c0,-2 -2.293579,-7.726486 -6,-11.999985c-6.552002,-7.554535 -16.654419,-17.483612 -26,-29.999939c-12.942993,-17.334198 -18.803101,-36.755325 -27.999878,-49.999908c-8.909302,-12.830597 -18.335938,-27.84063 -22,-35.999939c-4.412109,-9.825111 -6,-21.999962 -6,-31.999939c0,-5.999992 -0.552002,-12.445442 6,-19.999966c7.41272,-8.546974 16,-11.999981 26,-11.999981c16,0 31.859985,-1.07452 49.999878,11.999981c16.061768,11.576649 28.193726,23.832516 41.999878,39.999928c10.143799,11.87867 16.380493,23.763 20,29.999947c4.48938,7.735977 2.585815,10.58577 4,11.999969c1.414185,1.414215 4.346191,-1.705444 6,-3.999985c5.229858,-7.255959 9.187988,-15.025993 14,-17.999969c5.380005,-3.325012 18,-2 27.999878,-2c16,0 32.506104,7.079727 44,13.999985c14.739258,8.874252 20.288574,17.86824 22,21.999954c2.42041,5.843109 4.296143,12.456696 2,17.999969c-4.32959,10.452484 -16.943604,17.968567 -38,27.999939c-21.133667,10.068192 -50.073608,17.569199 -97.999878,25.999954c-54.087524,9.514603 -99.999756,13.999985 -135.999756,15.999969l-13.999878,2l-8,0l-2,0" id="svg_37" fill-opacity="null" stroke-opacity="null" stroke-width="1.5" fill="none"/>
  <path stroke="#fff" d="m89.002121,139.001236c-2,0 -8.113274,-3.835052 -13.999977,-7.999985c-8.163376,-5.775711 -18.587204,-15.452988 -25.99995,-23.999954c-6.552006,-7.554527 -13.999977,-15.999969 -23.999956,-25.999947c-5.99999,-5.999992 -16.29359,-13.726486 -19.999964,-17.999969c-6.552005,-7.554523 -8.986902,-11.757088 -9.999982,-17.999969c-0.320364,-1.974171 -1.414211,-4.585777 0,-5.999989c2.828422,-2.828423 5.386864,-2.917603 7.999985,-3.999992c5.543267,-2.296097 7.999985,0 9.999982,0c3.999991,0 7.385083,2.372009 9.999982,5.999989c1.653807,2.294537 7.622892,4.269279 11.999979,9.999985c3.838959,5.026157 5.835205,10.773727 7.999985,15.999969c2.296093,5.543266 -0.765362,10.152222 0,11.999977c1.08239,2.613121 2.585781,5.4142 3.999992,3.999992c2.828423,-2.828423 2.831787,-7.522141 5.999989,-13.999977c2.778694,-5.681431 10.808002,-12.823093 19.999966,-19.999962c4.458755,-3.481289 9.815552,-8.992435 17.999962,-9.999981c3.970024,-0.488731 7.705444,0.346188 9.999985,1.999996c3.627983,2.614899 10.831779,7.522141 13.999977,13.999977c2.778694,5.681435 4.288574,13.868256 5.999985,17.999962c2.420296,5.843124 2,11.999985 2,17.999969c0,5.999992 -5.008911,15.132629 -13.999977,21.999962c-12.81424,9.78746 -28.186264,13.593269 -45.999916,21.999962c-12.133141,5.725922 -15.999969,9.999985 -17.999966,11.999969l-3.999992,2l0,2" id="svg_38" fill-opacity="null" stroke-opacity="null" stroke-width="1.5" fill="none"/>
  <path stroke="#fff" d="m1133.000244,1460.998779c0,-2 -1.428223,-4.42334 -6,-10c-3.586304,-4.374634 -9.677368,-12.34082 -16,-17.999878c-9.542236,-8.540771 -16,-18 -24,-30c-7.999878,-12 -13.999878,-29.999878 -19.999878,-43.999878c-6,-14 -8.997437,-27.893433 -10,-42c-0.850708,-11.969727 -0.733154,-20.0448 0,-25.999878c1.007568,-8.184448 9.294189,-13.348145 16,-16c11.312988,-4.473633 22.320923,-4.75708 33.999878,-2c13.057495,3.08252 22.583008,13.187988 34,22c19.064941,14.714844 36.795532,33.24707 49.999878,47.999878c8.540771,9.542236 10,18 10,22c0,2 1.414185,4.585815 0,6c-2.828369,2.828369 -6,0 -8,0c-2,0 2,-4 8,-4c6,0 13.999878,0 21.999878,0c12,0 23.7771,0.388184 34,6c11.760864,6.456055 18.380615,13.762939 22,19.999878c4.489258,7.735962 5.378418,14.160522 3.999878,20c-1.027466,4.352539 -4.503052,9.381958 -11.999878,16c-12.088257,10.671265 -30.561035,17.208374 -50,23.999878c-22.96936,8.025024 -43.975342,8.150024 -67.999878,12c-25.974365,4.162354 -51.857178,6.88501 -73.999756,10c-19.903809,2.800049 -32,4 -40,6l-4,2" id="svg_39" fill-opacity="null" stroke-opacity="null" stroke-width="1.5" fill="none"/>
  <path stroke="#fff" id="svg_58" d="m1520.746493,162.752363c-1.876771,-79.207842 -66.635458,-142.836461 -146.267051,-142.876821c-53.235717,0.04036 -99.731203,28.494643 -125.279504,70.994443c-12.007298,-6.598972 -25.830826,-10.453417 -40.562469,-10.453417c-45.990978,0.04036 -83.405314,36.465878 -85.080282,82.05327c-48.291536,15.861749 -83.243872,61.045535 -83.284233,114.745425c0,66.837292 54.224554,121.082051 121.081996,121.082051l0,-0.04036l320.36278,0c66.837261,0 121.081995,-54.244759 121.081995,-121.082052c-0.080721,-53.235742 -34.427647,-98.217725 -82.053232,-114.422539zm-39.069124,195.184268l-320.342599,0c-44.578355,-0.121083 -80.66079,-36.183354 -80.741511,-80.721368c-0.040361,-40.017619 29.261482,-73.032658 67.604114,-79.369285c5.347788,-0.867755 10.130527,-3.834265 13.258479,-8.354662c3.127951,-4.480036 4.27823,-10.02963 3.289394,-15.377421c-0.56505,-3.006871 -0.908115,-5.811938 -0.908115,-8.556465c0.080721,-24.720919 20.079431,-44.739818 44.800338,-44.780178c13.056675,0 24.559465,5.610135 32.954483,14.75183c4.702018,5.186347 11.845855,7.567628 18.707169,6.255906c6.901673,-1.331903 12.632888,-6.215546 15.094888,-12.733796c15.115069,-40.199241 53.720046,-68.855327 99.105614,-68.814966c58.482604,0.080721 105.825664,47.443984 105.966926,105.946795c0,3.228855 -0.181623,6.558611 -0.524689,10.00945c-1.009016,10.453417 6.155002,19.857456 16.426791,21.774589c37.515239,6.962218 66.050229,39.674552 66.009868,79.167481c-0.100902,44.618736 -36.122795,80.681007 -80.70115,80.80209zm-240.811909,143.784936c-15.82138,-0.040361 -28.615711,-12.834697 -28.615711,-28.575364c0,-15.841569 12.794331,-28.575364 28.615711,-28.615725c15.74066,0.040361 28.51481,12.774156 28.575351,28.615725c-0.04036,15.740667 -12.814511,28.535003 -28.575351,28.575364zm151.332314,0c-15.8012,-0.040361 -28.615711,-12.834697 -28.615711,-28.575364c0,-15.841569 12.814511,-28.575364 28.615711,-28.615725c15.720479,0.040361 28.534991,12.774156 28.534991,28.615725c0.02018,15.740667 -12.753971,28.535003 -28.534991,28.575364zm-232.053644,102.152891c-15.801201,-0.04036 -28.595531,-12.854878 -28.595531,-28.615725s12.79433,-28.535003 28.595531,-28.575364c15.740659,0.040361 28.555171,12.814517 28.555171,28.575364c-0.020181,15.781028 -12.794331,28.595545 -28.555171,28.615725zm151.312134,0c-15.78102,-0.04036 -28.595532,-12.854878 -28.595532,-28.615725s12.794331,-28.535003 28.595532,-28.575364c15.740659,0.040361 28.51481,12.814517 28.55517,28.575364c-0.02018,15.781028 -12.75397,28.595545 -28.55517,28.615725zm151.332314,0c-15.78102,-0.04036 -28.575351,-12.794337 -28.575351,-28.575364c0,-15.841568 12.794331,-28.615725 28.575351,-28.656086c15.76084,0.040361 28.53499,12.814518 28.615711,28.656086c-0.060541,15.801208 -12.834691,28.555184 -28.615711,28.575364z" stroke-opacity="null" stroke-width="1.5" fill="#ffffff"/>
  <path stroke="#fff" id="svg_47" d="m219.86307,162.752363c-1.876771,-79.207842 -66.635458,-142.836461 -146.267051,-142.876821c-53.235717,0.04036 -99.731203,28.494643 -125.279504,70.994443c-12.007298,-6.598972 -25.830826,-10.453417 -40.562469,-10.453417c-45.990978,0.04036 -83.405314,36.465878 -85.080282,82.05327c-48.291536,15.861749 -83.243872,61.045535 -83.284233,114.745425c0,66.837292 54.224554,121.082051 121.081996,121.082051l0,-0.04036l320.36278,0c66.837261,0 121.081995,-54.244759 121.081995,-121.082052c-0.080721,-53.235742 -34.427647,-98.217725 -82.053232,-114.422539zm-39.069124,195.184268l-320.342599,0c-44.578355,-0.121083 -80.66079,-36.183354 -80.741511,-80.721368c-0.040361,-40.017619 29.261482,-73.032658 67.604114,-79.369285c5.347788,-0.867755 10.130527,-3.834265 13.258479,-8.354662c3.127951,-4.480036 4.27823,-10.02963 3.289394,-15.377421c-0.56505,-3.006871 -0.908115,-5.811938 -0.908115,-8.556465c0.080721,-24.720919 20.079431,-44.739818 44.800338,-44.780178c13.056675,0 24.559465,5.610135 32.954483,14.75183c4.702018,5.186347 11.845855,7.567628 18.707169,6.255906c6.901673,-1.331903 12.632888,-6.215546 15.094888,-12.733796c15.115069,-40.199241 53.720046,-68.855327 99.105614,-68.814966c58.482604,0.080721 105.825664,47.443984 105.966926,105.946795c0,3.228855 -0.181623,6.558611 -0.524689,10.00945c-1.009016,10.453417 6.155002,19.857456 16.426791,21.774589c37.515239,6.962218 66.050229,39.674552 66.009868,79.167481c-0.100902,44.618736 -36.122795,80.681007 -80.70115,80.80209zm-240.811909,143.784936c-15.82138,-0.040361 -28.615711,-12.834697 -28.615711,-28.575364c0,-15.841569 12.794331,-28.575364 28.615711,-28.615725c15.74066,0.040361 28.51481,12.774156 28.575351,28.615725c-0.04036,15.740667 -12.814511,28.535003 -28.575351,28.575364zm151.332314,0c-15.8012,-0.040361 -28.615711,-12.834697 -28.615711,-28.575364c0,-15.841569 12.814511,-28.575364 28.615711,-28.615725c15.720479,0.040361 28.534991,12.774156 28.534991,28.615725c0.02018,15.740667 -12.753971,28.535003 -28.534991,28.575364zm-232.053644,102.152891c-15.801201,-0.04036 -28.595531,-12.854878 -28.595531,-28.615725s12.79433,-28.535003 28.595531,-28.575364c15.740659,0.040361 28.555171,12.814517 28.555171,28.575364c-0.020181,15.781028 -12.794331,28.595545 -28.555171,28.615725zm151.312134,0c-15.78102,-0.04036 -28.595532,-12.854878 -28.595532,-28.615725s12.794331,-28.535003 28.595532,-28.575364c15.740659,0.040361 28.51481,12.814517 28.55517,28.575364c-0.02018,15.781028 -12.75397,28.595545 -28.55517,28.615725zm151.332314,0c-15.78102,-0.04036 -28.575351,-12.794337 -28.575351,-28.575364c0,-15.841568 12.794331,-28.615725 28.575351,-28.656086c15.76084,0.040361 28.53499,12.814518 28.615711,28.656086c-0.060541,15.801208 -12.834691,28.555184 -28.615711,28.575364z" stroke-opacity="null" stroke-width="1.5" fill="#ffffff"/>
  <path stroke="#fff" id="svg_57" d="m2144.745333,346.752027c-1.876771,-79.207842 -66.635458,-142.83646 -146.26705,-142.876821c-53.235718,0.040361 -99.731204,28.494643 -125.279505,70.994443c-12.007298,-6.598972 -25.830826,-10.453417 -40.562469,-10.453417c-45.990978,0.040361 -83.405314,36.465878 -85.080282,82.05327c-48.291536,15.861749 -83.243872,61.045535 -83.284232,114.745425c0,66.837293 54.224553,121.082052 121.081995,121.082052l0,-0.040361l320.36278,0c66.837262,0 121.081996,-54.244759 121.081996,-121.082052c-0.080722,-53.235742 -34.427648,-98.217724 -82.053233,-114.422539zm-39.069124,195.184268l-320.342599,0c-44.578355,-0.121082 -80.66079,-36.183353 -80.741511,-80.721368c-0.040361,-40.017618 29.261482,-73.032658 67.604114,-79.369285c5.347788,-0.867755 10.130527,-3.834265 13.258479,-8.354662c3.127951,-4.480036 4.27823,-10.02963 3.289394,-15.37742c-0.565049,-3.006871 -0.908115,-5.811939 -0.908115,-8.556465c0.080721,-24.720919 20.079431,-44.739818 44.800338,-44.780179c13.056676,0 24.559465,5.610135 32.954484,14.75183c4.702017,5.186348 11.845855,7.567628 18.707168,6.255906c6.901674,-1.331903 12.632888,-6.215545 15.094889,-12.733796c15.115069,-40.199241 53.720045,-68.855327 99.105613,-68.814966c58.482604,0.080721 105.825664,47.443984 105.966926,105.946795c0,3.228855 -0.181623,6.558611 -0.524688,10.00945c-1.009017,10.453417 6.155001,19.857456 16.426791,21.774589c37.515238,6.962218 66.050228,39.674552 66.009867,79.167482c-0.100901,44.618736 -36.122795,80.681007 -80.70115,80.802089zm-240.811908,143.784936c-15.821381,-0.04036 -28.615712,-12.834697 -28.615712,-28.575364c0,-15.841568 12.794331,-28.575364 28.615712,-28.615725c15.740659,0.040361 28.51481,12.774157 28.575351,28.615725c-0.040361,15.740667 -12.814512,28.535004 -28.575351,28.575364zm151.332314,0c-15.801201,-0.04036 -28.615712,-12.834697 -28.615712,-28.575364c0,-15.841568 12.814511,-28.575364 28.615712,-28.615725c15.720479,0.040361 28.53499,12.774157 28.53499,28.615725c0.02018,15.740667 -12.75397,28.535004 -28.53499,28.575364zm-232.053645,102.152892c-15.8012,-0.040361 -28.595531,-12.854878 -28.595531,-28.615725s12.794331,-28.535004 28.595531,-28.575365c15.74066,0.040361 28.555171,12.814518 28.555171,28.575365c-0.02018,15.781027 -12.794331,28.595544 -28.555171,28.615725zm151.312134,0c-15.78102,-0.040361 -28.595531,-12.854878 -28.595531,-28.615725s12.794331,-28.535004 28.595531,-28.575365c15.740659,0.040361 28.51481,12.814518 28.555171,28.575365c-0.020181,15.781027 -12.753971,28.595544 -28.555171,28.615725zm151.332314,0c-15.78102,-0.040361 -28.575351,-12.794337 -28.575351,-28.575365c0,-15.841568 12.794331,-28.615725 28.575351,-28.656085c15.76084,0.04036 28.53499,12.814517 28.615712,28.656085c-0.060541,15.801208 -12.834692,28.555184 -28.615712,28.575365z" stroke-opacity="null" stroke-width="1.5" fill="#ffffff"/>
  <path stroke="#fff" id="svg_48" d="m873.13608,346.752027c-1.876771,-79.207842 -66.635458,-142.83646 -146.26705,-142.876821c-53.235718,0.040361 -99.731204,28.494643 -125.279505,70.994443c-12.007298,-6.598972 -25.830826,-10.453417 -40.562469,-10.453417c-45.990978,0.040361 -83.405314,36.465878 -85.080282,82.05327c-48.291536,15.861749 -83.243872,61.045535 -83.284232,114.745425c0,66.837293 54.224553,121.082052 121.081995,121.082052l0,-0.040361l320.36278,0c66.837262,0 121.081996,-54.244759 121.081996,-121.082052c-0.080722,-53.235742 -34.427648,-98.217724 -82.053233,-114.422539zm-39.069124,195.184268l-320.342599,0c-44.578355,-0.121082 -80.66079,-36.183353 -80.741511,-80.721368c-0.040361,-40.017618 29.261482,-73.032658 67.604114,-79.369285c5.347788,-0.867755 10.130527,-3.834265 13.258479,-8.354662c3.127951,-4.480036 4.27823,-10.02963 3.289394,-15.37742c-0.565049,-3.006871 -0.908115,-5.811939 -0.908115,-8.556465c0.080721,-24.720919 20.079431,-44.739818 44.800338,-44.780179c13.056676,0 24.559465,5.610135 32.954484,14.75183c4.702017,5.186348 11.845855,7.567628 18.707168,6.255906c6.901674,-1.331903 12.632888,-6.215545 15.094889,-12.733796c15.115069,-40.199241 53.720045,-68.855327 99.105613,-68.814966c58.482604,0.080721 105.825664,47.443984 105.966926,105.946795c0,3.228855 -0.181623,6.558611 -0.524688,10.00945c-1.009017,10.453417 6.155001,19.857456 16.426791,21.774589c37.515238,6.962218 66.050228,39.674552 66.009867,79.167482c-0.100901,44.618736 -36.122795,80.681007 -80.70115,80.802089zm-240.811908,143.784936c-15.821381,-0.04036 -28.615712,-12.834697 -28.615712,-28.575364c0,-15.841568 12.794331,-28.575364 28.615712,-28.615725c15.740659,0.040361 28.51481,12.774157 28.575351,28.615725c-0.040361,15.740667 -12.814512,28.535004 -28.575351,28.575364zm151.332314,0c-15.801201,-0.04036 -28.615712,-12.834697 -28.615712,-28.575364c0,-15.841568 12.814511,-28.575364 28.615712,-28.615725c15.720479,0.040361 28.53499,12.774157 28.53499,28.615725c0.02018,15.740667 -12.75397,28.535004 -28.53499,28.575364zm-232.053645,102.152892c-15.8012,-0.040361 -28.595531,-12.854878 -28.595531,-28.615725s12.794331,-28.535004 28.595531,-28.575365c15.74066,0.040361 28.555171,12.814518 28.555171,28.575365c-0.02018,15.781027 -12.794331,28.595544 -28.555171,28.615725zm151.312134,0c-15.78102,-0.040361 -28.595531,-12.854878 -28.595531,-28.615725s12.794331,-28.535004 28.595531,-28.575365c15.740659,0.040361 28.51481,12.814518 28.555171,28.575365c-0.020181,15.781027 -12.753971,28.595544 -28.555171,28.615725zm151.332314,0c-15.78102,-0.040361 -28.575351,-12.794337 -28.575351,-28.575365c0,-15.841568 12.794331,-28.615725 28.575351,-28.656085c15.76084,0.04036 28.53499,12.814517 28.615712,28.656085c-0.060541,15.801208 -12.834692,28.555184 -28.615712,28.575365z" stroke-opacity="null" stroke-width="1.5" fill="#ffffff"/>
  <path stroke="#fff" style="vector-effect: non-scaling-stroke;" id="svg_46" d="m2716.744296,90.7525c-1.876771,-79.207842 -66.635458,-142.836461 -146.267051,-142.876821c-53.235717,0.040361 -99.731204,28.494643 -125.279505,70.994443c-12.007298,-6.598972 -25.830826,-10.453417 -40.562469,-10.453417c-45.990978,0.040361 -83.405315,36.465878 -85.080282,82.05327c-48.291536,15.861749 -83.243872,61.045534 -83.284233,114.745425c0,66.837293 54.224554,121.082052 121.081996,121.082052l0,-0.040361l320.36278,0c66.837262,0 121.081996,-54.244759 121.081996,-121.082052c-0.080721,-53.235742 -34.427647,-98.217724 -82.053232,-114.422539zm-39.069124,195.184268l-320.3426,0c-44.578355,-0.121082 -80.660789,-36.183353 -80.741511,-80.721368c-0.040361,-40.017618 29.261482,-73.032658 67.604114,-79.369285c5.347788,-0.867755 10.130527,-3.834265 13.258479,-8.354662c3.127952,-4.480036 4.278231,-10.02963 3.289394,-15.377421c-0.565049,-3.006871 -0.908115,-5.811938 -0.908115,-8.556465c0.080721,-24.720919 20.079431,-44.739818 44.800338,-44.780179c13.056675,0 24.559465,5.610135 32.954483,14.75183c4.702017,5.186348 11.845855,7.567628 18.707168,6.255906c6.901674,-1.331903 12.632888,-6.215545 15.094889,-12.733796c15.115069,-40.199241 53.720045,-68.855327 99.105613,-68.814966c58.482604,0.080721 105.825664,47.443984 105.966926,105.946795c0,3.228855 -0.181623,6.558611 -0.524689,10.00945c-1.009017,10.453417 6.155001,19.857457 16.426791,21.774589c37.515238,6.962218 66.050229,39.674552 66.009868,79.167482c-0.100902,44.618736 -36.122795,80.681007 -80.70115,80.802089zm-240.811909,143.784937c-15.821381,-0.040361 -28.615712,-12.834698 -28.615712,-28.575364c0,-15.841568 12.794331,-28.575364 28.615712,-28.615725c15.740659,0.040361 28.51481,12.774156 28.575351,28.615725c-0.040361,15.740667 -12.814511,28.535004 -28.575351,28.575364zm151.332314,0c-15.8012,-0.040361 -28.615712,-12.834698 -28.615712,-28.575364c0,-15.841568 12.814511,-28.575364 28.615712,-28.615725c15.720479,0.040361 28.53499,12.774156 28.53499,28.615725c0.02018,15.740667 -12.75397,28.535004 -28.53499,28.575364zm-232.053644,102.152891c-15.8012,-0.040361 -28.595531,-12.854878 -28.595531,-28.615725s12.794331,-28.535004 28.595531,-28.575364c15.740659,0.040361 28.555171,12.814517 28.555171,28.575364c-0.02018,15.781027 -12.794331,28.595545 -28.555171,28.615725zm151.312134,0c-15.78102,-0.040361 -28.595531,-12.854878 -28.595531,-28.615725s12.794331,-28.535004 28.595531,-28.575364c15.740659,0.040361 28.51481,12.814517 28.555171,28.575364c-0.02018,15.781027 -12.75397,28.595545 -28.555171,28.615725zm151.332314,0c-15.78102,-0.040361 -28.575351,-12.794337 -28.575351,-28.575364c0,-15.841568 12.794331,-28.615725 28.575351,-28.656086c15.76084,0.040361 28.53499,12.814517 28.615712,28.656086c-0.060541,15.801208 -12.834692,28.555184 -28.615712,28.575364z" stroke-opacity="null" stroke-width="1.5" fill="#ffffff"/>
  <path stroke="#ffffff" id="svg_56" d="m-253.847729,1742.998293c-31.61949,-1148.03032 5035.444882,-43.99992 2492.005154,17.999967l-2542.156798,60.99834l50.151644,-78.998307z" stroke-width="1.5" fill="#ffffff"/>
  <path transform="rotate(-2.7360165119171143 1416.0212402343595,962.2138671875039) " stroke="#000000" id="svg_59" d="m1522.203791,980.867689c-12.437551,-22.49025 -27.671825,-40.692584 -42.945106,-53.417738c-17.821314,13.051744 -39.526906,20.991203 -63.213842,20.991203c-23.702077,0 -45.438915,-7.963079 -63.237102,-20.991203c-15.273262,12.725135 -30.507403,30.927488 -42.991797,53.417738c-28.953943,52.19009 -32.15455,105.731566 -7.147248,119.622118c11.202448,6.253627 22.956575,1.584897 35.091194,-10.099335c-2.136426,11.847243 -3.402758,24.696666 -3.402758,38.14425c0,59.710296 23.197278,108.077712 51.793951,108.077712c17.223152,0 25.761057,-17.619009 29.854885,-44.58411c4.093999,26.965101 12.623937,44.58411 29.808669,44.58411c28.635225,0 51.832427,-48.367416 51.832427,-108.077712c0,-13.447584 -1.242864,-26.297007 -3.418012,-38.14425c12.173418,11.684232 23.904038,16.352962 35.129689,10.099335c25.046443,-13.890571 21.806695,-67.432028 -7.15495,-119.622118zm-106.18217,-52.788081c48.127002,0 87.141159,-39.022311 87.141159,-87.141454s-39.014157,-87.141169 -87.141159,-87.141169c-48.119262,0 -87.164609,39.014172 -87.164609,87.141169s39.045328,87.141454 87.164609,87.141454zm59.531392,-178.866205c25.147186,9.260336 10.013731,-14.768386 10.013731,-31.183539s15.521896,-36.489514 -10.013731,-28.324454c-26.801979,8.591938 -48.530982,13.315384 -48.530982,29.753797s21.729023,19.872438 48.530982,29.754196zm-59.368211,-11.691783c15.925781,0 7.030643,-8.063917 7.030643,-18.000108c0,-9.943836 8.918436,-17.984569 -7.030643,-17.984569s-7.613418,8.063975 -7.613418,17.984569c0,9.959394 -8.312609,18.000108 7.613418,18.000108zm-59.710112,11.691783c26.801997,-9.858631 48.530811,-13.32341 48.530811,-29.754196s-21.728814,-21.161859 -48.530811,-29.753797c-25.535665,-8.188339 -10.021624,11.893573 -10.021624,28.324454s-15.148917,40.428261 10.021624,31.183539z" stroke-width="1.5" fill="#ffaad4"/>
  <path transform="rotate(6.636428356170654 1154.0146484375,954.2138671874983) " stroke="#000000" id="svg_42" d="m1260.197078,972.867704c-12.437551,-22.49025 -27.671825,-40.692585 -42.945106,-53.417738c-17.821313,13.051744 -39.526905,20.991203 -63.213841,20.991203c-23.702077,0 -45.438916,-7.963079 -63.237102,-20.991203c-15.273262,12.725134 -30.507403,30.927488 -42.991797,53.417738c-28.953943,52.19009 -32.15455,105.731566 -7.147248,119.622117c11.202448,6.253627 22.956575,1.584898 35.091194,-10.099334c-2.136426,11.847243 -3.402758,24.696665 -3.402758,38.144249c0,59.710297 23.197278,108.077712 51.793951,108.077712c17.223151,0 25.761057,-17.619009 29.854885,-44.584109c4.093999,26.9651 12.623936,44.584109 29.808669,44.584109c28.635225,0 51.832427,-48.367416 51.832427,-108.077712c0,-13.447584 -1.242864,-26.297006 -3.418012,-38.144249c12.173417,11.684232 23.904038,16.352961 35.129689,10.099334c25.046442,-13.890571 21.806695,-67.432027 -7.154951,-119.622117zm-106.18217,-52.788081c48.127002,0 87.141159,-39.022311 87.141159,-87.141454s-39.014157,-87.141169 -87.141159,-87.141169c-48.119262,0 -87.164609,39.014172 -87.164609,87.141169s39.045328,87.141454 87.164609,87.141454zm59.531392,-178.866205c25.147186,9.260336 10.013731,-14.768386 10.013731,-31.183539s15.521896,-36.489514 -10.013731,-28.324455c-26.801979,8.591938 -48.530982,13.315385 -48.530982,29.753797s21.729022,19.872438 48.530982,29.754196zm-59.368211,-11.691783c15.92578,0 7.030643,-8.063917 7.030643,-18.000108c0,-9.943836 8.918435,-17.984569 -7.030643,-17.984569s-7.613418,8.063975 -7.613418,17.984569c0,9.959394 -8.312609,18.000108 7.613418,18.000108zm-59.710112,11.691783c26.801997,-9.858631 48.530811,-13.32341 48.530811,-29.754196s-21.728813,-21.161859 -48.530811,-29.753797c-25.535665,-8.188339 -10.021624,11.893573 -10.021624,28.324455s-15.148917,40.428261 10.021624,31.183539z" stroke-width="1.5" fill="#ffaad4"/>
 </g>
</svg>