<svg width="400" height="400" xmlns="http://www.w3.org/2000/svg" stroke="null" style="vector-effect: non-scaling-stroke;">
 <!-- Created with Method Draw - http://github.com/duopixel/Method-Draw/ -->
 <g>
  <title>background</title>
 </g>
 <g>
  <title>Layer 1</title>
  <path id="svg_1" d="m144.813418,349.928934c-10.764755,-4.854389 3.282424,-14.559963 8.600588,-18.853254c3.582237,-3.306392 -20.530057,0.463814 -10.350056,-11.013998c11.168945,-9.376746 6.949906,-25.240125 -4.214203,-32.614016c-15.364146,-10.374052 -35.077329,-19.252789 -40.753409,-38.62397c-5.739361,-12.065447 7.87163,-24.772825 -0.882885,-35.66824c-7.046596,-14.146545 1.185831,-28.898427 6.302877,-42.003003c2.353204,-18.12752 -12.062096,-32.462941 -19.989622,-47.355703c-9.81608,-14.23186 -15.474518,-30.815251 -16.287623,-48.097114c-2.134737,-7.376631 0.227706,-18.832338 8.752117,-8.88715c17.851389,14.294093 37.449213,27.857466 49.943084,47.422631c2.364962,7.067096 11.834713,27.549563 12.363511,9.001521c0.247664,-25.492988 8.033818,-53.296905 27.985225,-70.38044c13.5706,-12.365482 20.889171,9.28598 21.522366,20.288431c3.532174,21.648207 -2.322828,43.11593 -8.847346,63.565602c-2.395217,9.50362 -8.632969,35.547007 9.157183,25.944369c40.982122,-15.822334 90.635005,0.795373 117.328994,34.785093c12.270992,16.457403 17.644901,37.601335 17.523577,57.903075c-6.318604,11.927178 17.158388,-0.223434 8.651467,13.536935c-5.007934,15.243211 -19.157314,23.514354 -29.068542,35.019841c-10.085486,9.219505 -2.60236,28.931201 -19.280834,31.8357c-24.335919,7.502156 -49.890634,10.788378 -75.225179,12.701182c-14.177137,2.904499 -21.057373,-13.30667 -7.469092,-20.046067c6.514594,-10.042775 25.152661,-10.746556 30.6904,-12.337513c-13.233389,1.294802 -29.553453,-4.10648 -40.704535,4.089171c-6.753231,10.963018 -12.16198,25.392731 -26.323581,28.521903c-6.364194,1.767552 -12.907723,3.185008 -19.424473,1.265l-0.00001,0.00001z" fill-opacity="null" stroke-opacity="null" stroke-width="1.5" fill="#7f003f"/>
 </g>
</svg>